<svg width="30" height="30" xmlns="http://www.w3.org/2000/svg" xmlns:svg="http://www.w3.org/2000/svg" xmlns:xlink="http://www.w3.org/1999/xlink">
 <g>
  <title>Layer 1</title>
  <g stroke="null" id="svg_1">
   <g stroke="null" id="svg_2">
    <defs stroke="null" transform="translate(-3.48046875,8.54296875) translate(-297.08642578125,-113.77777862548828) translate(301.8644104003906,106.10319519042969) scale(0.18386492133140564) translate(-301.8644104003906,-106.10319519042969) translate(25.98638916015625,-41.740333557128906) scale(0.3286016285419464) translate(-25.98638916015625,41.740333557128906) translate(21.475553512573242,14.372882843017578) scale(1.2498875856399536) translate(-21.475553512573242,-14.372882843017578) ">
     <rect stroke="null" id="SVGID_1_" x="301.9" y="98.7" width="356.2" height="363.7"/>
    </defs>
    <clipPath stroke="null" transform="translate(-3.48046875,8.54296875) translate(-297.08642578125,-113.77777862548828) translate(301.8644104003906,106.10319519042969) scale(0.18386492133140564) translate(-301.8644104003906,-106.10319519042969) translate(25.98638916015625,-41.740333557128906) scale(0.3286016285419464) translate(-25.98638916015625,41.740333557128906) translate(21.475553512573242,14.372882843017578) scale(1.2498875856399536) translate(-21.475553512573242,-14.372882843017578) " id="SVGID_2_">
     <use stroke="null" xlink:href="#SVGID_1_" id="svg_3"/>
    </clipPath>
    <path stroke="null" class="st0" d="m2.17619,26.12073c-0.04531,0 -0.09062,-0.00755 -0.14348,-0.02265c-0.14348,-0.04531 -0.28696,-0.09062 -0.43044,-0.14348c-0.2341,-0.08307 -0.36248,-0.33227 -0.27941,-0.56637c0.08307,-0.2341 0.33227,-0.36248 0.56637,-0.27941c0.14348,0.04531 0.27941,0.09817 0.42289,0.14348c0.2341,0.07552 0.36248,0.33227 0.28696,0.56637c-0.06041,0.18124 -0.2341,0.30206 -0.42289,0.30206l0,0zm0,0" id="svg_4"/>
    <path stroke="null" class="st0" d="m9.30491,27.27612c-0.24165,0 -0.43799,-0.18879 -0.44554,-0.43044l0,-0.02265c0,-0.24165 0.18879,-0.43799 0.43044,-0.44554c0.30962,-0.0151 0.59658,-0.03776 0.86844,-0.07552c0.2492,-0.02265 0.4682,0.15103 0.49841,0.39268c0.03021,0.24165 -0.14348,0.4682 -0.38513,0.49841c-0.30962,0.03776 -0.61923,0.06041 -0.94395,0.08307l-0.02265,0zm-1.81239,-0.03776l-0.03776,0c-0.30206,-0.02265 -0.61168,-0.05286 -0.9213,-0.09062c-0.22655,-0.03021 -0.39268,-0.219 -0.39268,-0.44554c0,-0.02265 0,-0.03776 0.00755,-0.06041c0.03021,-0.24165 0.25675,-0.41534 0.49841,-0.39268l0.00755,0.02265l0.00755,-0.02265c0.28696,0.03776 0.58147,0.06796 0.86844,0.09062c0.2492,0.0151 0.43044,0.2341 0.41534,0.4833c-0.02265,0.24165 -0.219,0.41534 -0.4531,0.41534l0,0zm-2.68837,-0.40024c-0.03021,0 -0.06041,-0.00755 -0.09062,-0.00755c-0.27941,-0.06041 -0.57392,-0.12838 -0.86844,-0.20389l-0.03021,-0.00755c-0.11327,-0.03021 -0.21145,-0.10572 -0.27186,-0.21145c-0.06041,-0.10572 -0.07552,-0.22655 -0.04531,-0.33227c0.06041,-0.24165 0.30962,-0.38513 0.55127,-0.32472c0.27941,0.07552 0.57392,0.14348 0.86844,0.20389c0.11327,0.03021 0.219,0.09817 0.27941,0.19634c0.06796,0.09817 0.08307,0.219 0.06041,0.33227c-0.06041,0.20389 -0.2492,0.35493 -0.4531,0.35493l0,0zm7.18158,-0.03776c-0.19634,0 -0.37003,-0.12083 -0.42289,-0.30962c-0.0151,-0.04531 -0.02265,-0.09817 -0.02265,-0.14348c0,-0.18879 0.12083,-0.36248 0.30206,-0.42289c0.27186,-0.09062 0.54372,-0.19634 0.79292,-0.30962c0.219,-0.10572 0.49841,0 0.59658,0.21145c0.10572,0.22655 0.00755,0.49085 -0.21145,0.59658c-0.27186,0.12838 -0.55882,0.24165 -0.86844,0.34737l-0.02265,0.00755c-0.05286,0.02265 -0.09817,0.02265 -0.14348,0.02265l0,0zm2.3561,-1.32908c-0.12838,0 -0.2492,-0.05286 -0.33227,-0.15103c-0.07552,-0.08307 -0.11327,-0.18879 -0.11327,-0.30206c0,-0.12838 0.05286,-0.2492 0.14348,-0.33227c0.21145,-0.18879 0.40024,-0.39268 0.57392,-0.60413c0.15103,-0.18879 0.44554,-0.219 0.62678,-0.06796c0.09062,0.07552 0.15103,0.18124 0.16614,0.30206c0.0151,0.11327 -0.02265,0.2341 -0.09062,0.32472c-0.19634,0.2341 -0.40024,0.46065 -0.63434,0.67209l-0.03776,0.03776c-0.09062,0.08307 -0.19634,0.12083 -0.30206,0.12083l0,0zm1.51032,-2.22772c-0.05286,0 -0.10572,-0.00755 -0.15858,-0.03021c-0.17369,-0.06796 -0.28696,-0.22655 -0.29451,-0.41534c0,-0.05286 0.00755,-0.11327 0.03021,-0.15858c0.09817,-0.26431 0.18124,-0.52861 0.2492,-0.81557c0.06041,-0.2341 0.30206,-0.39268 0.53616,-0.33227c0.24165,0.05286 0.39268,0.29451 0.33227,0.53616c-0.07552,0.31717 -0.17369,0.62678 -0.27941,0.9213c-0.06041,0.18124 -0.22655,0.29451 -0.41534,0.29451l0,0zm0.47575,-2.66572l0,0c-0.2492,0 -0.44554,-0.19634 -0.44554,-0.43799l0,-0.12083c0,-0.24165 -0.00755,-0.49841 -0.02265,-0.75516c-0.00755,-0.12083 0.02265,-0.24165 0.10572,-0.32472c0.08307,-0.09062 0.18879,-0.14348 0.30962,-0.15858c0.25675,-0.02265 0.46065,0.16614 0.4833,0.41534c0.02265,0.27941 0.03021,0.55127 0.03021,0.82313l0,0.12083c-0.0151,0.24165 -0.219,0.43799 -0.46065,0.43799l0,0zm-0.29451,-2.70348c-0.20389,0 -0.38513,-0.14348 -0.43799,-0.33227l-0.00755,-0.02265c-0.00755,-0.00755 -0.00755,-0.0151 -0.00755,-0.02265c-0.06041,-0.27941 -0.12838,-0.56637 -0.20389,-0.83823c-0.06041,-0.2341 0.07552,-0.4833 0.31717,-0.55127c0.22655,-0.06041 0.4833,0.08307 0.55127,0.31717c0.08307,0.30206 0.15858,0.60413 0.22655,0.90619l0.00755,0.02265l-0.00755,0c0.00755,0.02265 0.00755,0.03776 0.00755,0.06041c0,0.21145 -0.15103,0.39268 -0.35493,0.43799c-0.02265,0.02265 -0.05286,0.02265 -0.09062,0.02265l0,0zm-0.77026,-2.60531c-0.18879,0 -0.36248,-0.12083 -0.42289,-0.29451c-0.06796,-0.17369 -0.12838,-0.32472 -0.18879,-0.49085c-0.04531,-0.12083 -0.09062,-0.24165 -0.13593,-0.35493c-0.04531,-0.11327 -0.03776,-0.2341 0.00755,-0.33982c0.04531,-0.11327 0.13593,-0.18879 0.2492,-0.2341c0.22655,-0.08307 0.49085,0.03776 0.58147,0.26431c0.03776,0.11327 0.08307,0.22655 0.12838,0.33982c0.06796,0.15858 0.12838,0.32472 0.19634,0.51351c0.0151,0.04531 0.03021,0.09817 0.03021,0.15103c0,0.18879 -0.12083,0.36248 -0.29451,0.42289c-0.04531,0.0151 -0.09817,0.02265 -0.15103,0.02265l0,0zm-0.90619,-2.56755c-0.19634,0 -0.37758,-0.13593 -0.43044,-0.32472c-0.09062,-0.30962 -0.16614,-0.61923 -0.2341,-0.89864c-0.05286,-0.24165 0.09062,-0.4833 0.33227,-0.53616c0.24165,-0.06041 0.4833,0.09062 0.53616,0.33227c0.06041,0.26431 0.14348,0.55127 0.22655,0.85333c0.0151,0.03776 0.0151,0.08307 0.0151,0.12083c0.00755,0.20389 -0.12838,0.37758 -0.32472,0.43799c-0.03776,0.00755 -0.07552,0.0151 -0.12083,0.0151l0,0zm-0.55127,-2.67327c-0.22655,0 -0.41534,-0.17369 -0.44554,-0.39268c-0.03776,-0.31717 -0.05286,-0.63434 -0.06796,-0.94395c-0.00755,-0.2492 0.18124,-0.4531 0.43044,-0.46065c0.2492,-0.02265 0.46065,0.18124 0.4682,0.43044c0.00755,0.27186 0.03021,0.55882 0.06796,0.86844l0,0.04531c0.00755,0.2341 -0.16614,0.42289 -0.39268,0.4531l-0.06041,0zm0.03021,-2.71103c-0.02265,0 -0.04531,-0.00755 -0.06796,-0.00755c-0.219,-0.03776 -0.37758,-0.22655 -0.37758,-0.44554c0,-0.02265 0,-0.04531 0.00755,-0.06796c0.05286,-0.32472 0.12083,-0.64189 0.20389,-0.9364c0.06796,-0.2341 0.32472,-0.37758 0.55127,-0.30962c0.24165,0.06796 0.37758,0.31717 0.30962,0.55127c-0.07552,0.26431 -0.13593,0.53616 -0.17369,0.80802l-0.00755,0.02265c-0.03021,0.22655 -0.219,0.38513 -0.44554,0.38513l0,0zm0.9213,-2.53734c-0.08307,0 -0.16614,-0.02265 -0.2341,-0.07552c-0.12838,-0.08307 -0.21145,-0.22655 -0.21145,-0.37758c0,-0.08307 0.02265,-0.16614 0.06796,-0.24165c0.17369,-0.27186 0.37003,-0.53616 0.58903,-0.78537c0.15858,-0.18124 0.46065,-0.19634 0.63434,-0.03776c0.18124,0.16614 0.19634,0.44554 0.03776,0.63434c-0.18124,0.20389 -0.35493,0.43044 -0.50596,0.66454c-0.08307,0.13593 -0.22655,0.219 -0.37758,0.219l0,0zm12.57343,-1.81239c-0.04531,0 -0.09062,-0.00755 -0.14348,-0.02265c-0.00755,0 -0.0151,-0.00755 -0.03021,-0.00755c-0.18124,-0.06041 -0.30206,-0.22655 -0.30962,-0.42289c0,-0.05286 0.00755,-0.09062 0.02265,-0.14348c0.07552,-0.22655 0.33227,-0.35493 0.56637,-0.28696c0.0151,0.00755 0.02265,0.00755 0.03776,0.0151c0.11327,0.03776 0.20389,0.11327 0.25675,0.219c0.05286,0.10572 0.06796,0.22655 0.02265,0.33982c-0.06041,0.18879 -0.22655,0.30962 -0.42289,0.30962l0,0zm-10.63267,-0.06041c-0.15858,0 -0.30206,-0.08307 -0.38513,-0.219c-0.03776,-0.06796 -0.06041,-0.14348 -0.06041,-0.22655c0,-0.15858 0.08307,-0.30962 0.22655,-0.39268c0.27186,-0.15858 0.56637,-0.30206 0.86844,-0.43044c0.22655,-0.09062 0.49085,0.02265 0.58903,0.24165c0.09062,0.22655 -0.0151,0.49085 -0.24165,0.58903c-0.26431,0.10572 -0.52106,0.24165 -0.75516,0.37758c-0.07552,0.04531 -0.15858,0.06041 -0.24165,0.06041l0,0zm8.85804,-0.46065c-0.03776,0 -0.07552,-0.00755 -0.11327,-0.00755c-0.31717,-0.08307 -0.59658,-0.14348 -0.86844,-0.20389c-0.21145,-0.04531 -0.36248,-0.22655 -0.36248,-0.43799c0,-0.03021 0.00755,-0.06041 0.00755,-0.09062c0.04531,-0.2341 0.29451,-0.39268 0.52861,-0.34737c0.29451,0.06041 0.59658,0.13593 0.89864,0.21145c0.2341,0.06041 0.38513,0.30206 0.32472,0.54372c-0.03776,0.19634 -0.21145,0.33227 -0.41534,0.33227l0,0zm-6.29804,-0.43799c-0.219,0 -0.40024,-0.15858 -0.43799,-0.37003c-0.00755,-0.02265 -0.00755,-0.05286 -0.00755,-0.08307c0,-0.21145 0.15858,-0.40024 0.37003,-0.43044c0.29451,-0.05286 0.61168,-0.09062 0.94395,-0.12083c0.2492,-0.02265 0.46065,0.16614 0.4833,0.40779c0.0151,0.2492 -0.16614,0.4682 -0.41534,0.4833c-0.29451,0.02265 -0.58147,0.06041 -0.86088,0.11327c-0.03021,0 -0.05286,0 -0.07552,0l0,0zm3.61722,-0.05286c-0.0151,0 -0.03021,0 -0.04531,-0.00755c-0.29451,-0.03021 -0.59658,-0.06041 -0.88354,-0.07552c-0.2341,-0.00755 -0.42289,-0.21145 -0.42289,-0.44554l0,-0.02265c0.0151,-0.2492 0.22655,-0.43044 0.4682,-0.42289c0.29451,0.0151 0.60413,0.03776 0.92885,0.07552c0.11327,0.0151 0.22655,0.07552 0.29451,0.16614c0.07552,0.09062 0.11327,0.21145 0.09817,0.33227c-0.0151,0.2341 -0.21145,0.40024 -0.43799,0.40024l0,0zm0,0" id="svg_5"/>
    <path stroke="null" class="st0" d="m27.75349,3.11097c-0.04531,0 -0.09817,-0.00755 -0.14348,-0.02265c-0.14348,-0.04531 -0.27941,-0.09817 -0.42289,-0.14348c-0.2341,-0.07552 -0.36248,-0.33227 -0.28696,-0.56637c0.07552,-0.2341 0.32472,-0.36248 0.56637,-0.28696c0.14348,0.04531 0.28696,0.09817 0.43044,0.14348c0.2341,0.08307 0.36248,0.33982 0.27941,0.57392c-0.06041,0.18124 -0.24165,0.30206 -0.42289,0.30206l0,0zm0,0" id="svg_6"/>
    <path stroke="null" class="st0" d="m3.54303,27.76698c-0.18879,0 -0.36248,-0.11327 -0.42289,-0.30206c-1.99363,-5.82229 -1.64625,-10.58736 0.9515,-13.06429c2.36365,-2.25038 6.32825,-2.43162 11.16883,-0.50596c4.45545,1.77463 8.03491,1.67646 10.08895,-0.27941c2.31079,-2.20507 2.55244,-6.63787 0.65699,-12.15809c-0.08307,-0.2341 0.04531,-0.49085 0.27941,-0.56637c0.2341,-0.07552 0.49085,0.04531 0.57392,0.27941c2.00873,5.87515 1.68401,10.64777 -0.89109,13.10204c-2.31834,2.20507 -6.23763,2.37121 -11.0329,0.46065c-4.49321,-1.78973 -8.12553,-1.67646 -10.21733,0.32472c-2.33345,2.22772 -2.59775,6.63787 -0.72495,12.12033c0.08307,0.2341 -0.04531,0.49085 -0.27941,0.56637c-0.06041,0.0151 -0.10572,0.02265 -0.15103,0.02265l0,0zm0,0" id="svg_7"/>
   </g>
   <path stroke="null" d="m12.42373,26.63424c-0.11327,0 -0.2341,-0.04531 -0.31717,-0.12838l-9.42441,-9.43196c-0.17369,-0.17369 -0.17369,-0.46065 0,-0.63434c0.17369,-0.17369 0.46065,-0.17369 0.63434,0l9.43196,9.43196c0.17369,0.17369 0.17369,0.46065 0,0.63434c-0.09062,0.08307 -0.20389,0.12838 -0.32472,0.12838l0,0zm0,0" id="svg_8"/>
   <path stroke="null" d="m7.98338,27.26102c-0.11327,0 -0.22655,-0.04531 -0.31717,-0.12838l-5.68636,-5.68636c-0.17369,-0.17369 -0.17369,-0.46065 0,-0.63434c0.17369,-0.18124 0.46065,-0.18124 0.63434,0l5.68636,5.68636c0.17369,0.17369 0.17369,0.46065 0,0.63434c-0.09062,0.09062 -0.20389,0.12838 -0.31717,0.12838l0,0zm0,0" id="svg_9"/>
   <path stroke="null" d="m27.69308,7.98931c-0.11327,0 -0.22655,-0.04531 -0.31717,-0.12838l-6.13191,-6.12436c-0.17369,-0.18124 -0.17369,-0.46065 0,-0.63434c0.17369,-0.17369 0.46065,-0.17369 0.63434,0l6.12436,6.12436c0.17369,0.17369 0.17369,0.46065 0,0.63434c-0.08307,0.08307 -0.19634,0.12838 -0.30962,0.12838l0,0zm0,0" id="svg_10"/>
   <path stroke="null" d="m27.00588,12.3768c-0.11327,0 -0.22655,-0.04531 -0.31717,-0.12838l-9.74913,-9.74913c-0.17369,-0.17369 -0.17369,-0.46065 0,-0.63434c0.17369,-0.17369 0.46065,-0.17369 0.63434,0l9.74913,9.74913c0.17369,0.17369 0.17369,0.46065 0,0.63434c-0.09062,0.08307 -0.20389,0.12838 -0.31717,0.12838l0,0zm0,0" id="svg_11"/>
   <path stroke="null" d="m24.67244,15.11803c-0.11327,0 -0.22655,-0.04531 -0.31717,-0.12838l-10.0663,-10.0663c-0.17369,-0.17369 -0.17369,-0.46065 0,-0.63434c0.17369,-0.17369 0.46065,-0.17369 0.63434,0l10.0663,10.0663c0.17369,0.17369 0.17369,0.46065 0,0.63434c-0.08307,0.09062 -0.20389,0.12838 -0.31717,0.12838l0,0zm0,0" id="svg_12"/>
   <path stroke="null" d="m20.53415,16.05443c-0.11327,0 -0.22655,-0.04531 -0.31717,-0.12838l-6.77379,-6.77379c-0.17369,-0.17369 -0.17369,-0.46065 0,-0.63434c0.17369,-0.17369 0.46065,-0.17369 0.63434,0l6.77379,6.77379c0.17369,0.18124 0.17369,0.46065 0,0.63434c-0.09062,0.08307 -0.20389,0.12838 -0.31717,0.12838l0,0zm0,0" id="svg_13"/>
   <path stroke="null" d="m16.32791,20.38906c-0.11327,0 -0.22655,-0.04531 -0.31717,-0.12838l-6.90972,-6.90972c-0.18124,-0.17369 -0.18124,-0.46065 0,-0.63434c0.17369,-0.17369 0.46065,-0.17369 0.63434,0l6.90972,6.90972c0.17369,0.17369 0.17369,0.46065 0,0.63434c-0.09062,0.08307 -0.20389,0.12838 -0.31717,0.12838l0,0zm0,0" id="svg_14"/>
   <path stroke="null" d="m15.26313,24.39896c-0.11327,0 -0.22655,-0.04531 -0.31717,-0.12838l-9.93792,-9.93792c-0.17369,-0.17369 -0.17369,-0.46065 0,-0.63434c0.17369,-0.17369 0.46065,-0.17369 0.63434,0l9.93792,9.93792c0.17369,0.17369 0.17369,0.46065 0,0.63434c-0.09062,0.08307 -0.20389,0.12838 -0.31717,0.12838l0,0zm0,0" id="svg_15"/>
  </g>
 </g>
</svg>