<svg width="30.000000000000004" height="30.000000000000004" xmlns="http://www.w3.org/2000/svg" xmlns:svg="http://www.w3.org/2000/svg">
 <g>
  <title>Layer 1</title>
  <g stroke="null" id="svg_1">
   <g stroke="null" id="svg_2">
    <g stroke="null" id="svg_3">
     <path stroke="null" d="m28.76965,24.27895l0,-4.45673c0,-1.20285 -0.51288,-2.35422 -1.40687,-3.15896l-3.31575,-2.98422l0,-1.58538l-4.41139,-0.98041c-2.2985,-4.39675 -6.93705,-7.12217 -10.45539,-8.63766c-3.84279,-1.65575 -7.10942,-2.25033 -7.24638,-2.27441l-1.12587,-0.20118l0.65597,0.93649c0.27202,0.38867 6.73445,9.48631 16.58346,12.39969l1.98208,3.96416l1.54854,-0.51618l2.92944,2.56296c0.30791,0.26919 0.48407,0.65786 0.48407,1.06637l0,3.86546l-0.94452,0l0,4.72261l5.66714,0l0,-4.72261l-0.94452,0zm-10.58432,-11.89343c-7.55854,-2.29094 -13.18223,-8.51771 -15.16714,-10.97583c3.31952,0.82126 12.32319,3.59344 15.75653,10.09175l-0.58938,0.88407zm3.21846,3.4612l-0.89588,0.29847l-1.58302,-3.16651l0.613,-0.91949l3.56463,0.79198l0,0.87227l-1.69872,2.12329zm0.93319,0.3457l1.294,-1.6175l3.09945,2.79012c0.69564,0.62622 1.0947,1.52163 1.0947,2.45718l0,4.45673l-1.88905,0l0,-3.86546c0,-0.68053 -0.29375,-1.32847 -0.80662,-1.77712l-2.79248,-2.44395zm6.43267,11.86462l-3.77809,0l0,-0.94452l2.83357,0l0,-0.94452l-2.83357,0l0,-0.94452l3.77809,0l0,2.83357z" id="svg_4"/>
     <rect stroke="null" x="208.865" y="159.263" transform="matrix(-0.046600385767796335,-0.03624015305656217,0.03624015305656217,-0.046600385767796335,21.579381122521806,26.890411988829708) " width="91.217" height="16" id="svg_5"/>
    </g>
   </g>
  </g>
 </g>
</svg>