<?xml version="1.0" encoding="iso-8859-1"?>
<!-- Generator: Adobe Illustrator 19.0.0, SVG Export Plug-In . SVG Version: 6.00 Build 0)  -->
<svg version="1.1" id="Capa_1" xmlns="http://www.w3.org/2000/svg" xmlns:xlink="http://www.w3.org/1999/xlink" x="0px" y="0px"
	 viewBox="0 0 480 480" style="enable-background:new 0 0 480 480;" xml:space="preserve">
<g>
	<g>
		<path d="M72,264c-22.091,0-40,17.909-40,40c0,22.091,17.909,40,40,40s40-17.909,40-40C111.974,281.92,94.08,264.026,72,264z
			 M72,328c-13.255,0-24-10.745-24-24s10.745-24,24-24s24,10.745,24,24S85.255,328,72,328z"/>
	</g>
</g>
<g>
	<g>
		<path d="M200,264c-22.091,0-40,17.909-40,40c0,22.091,17.909,40,40,40s40-17.909,40-40C239.974,281.92,222.08,264.026,200,264z
			 M200,328c-13.255,0-24-10.745-24-24s10.745-24,24-24s24,10.745,24,24S213.255,328,200,328z"/>
	</g>
</g>
<g>
	<g>
		<path d="M408,232h-18.848c30.959-24.906,35.866-70.193,10.96-101.152C386.443,113.857,365.806,103.983,344,104H136
			c-39.734-0.031-71.969,32.155-72,71.888c-0.017,21.806,9.857,42.443,26.848,56.112H72c-39.765,0-72,32.235-72,72
			c0,39.764,32.235,72,72,72h336c39.765,0,72-32.236,72-72C480,264.235,447.765,232,408,232z M344,120c30.928,0,56,25.072,56,56
			c0,30.928-25.072,56-56,56H181.152c30.928-24.839,35.864-70.046,11.026-100.974c-3.264-4.064-6.961-7.761-11.026-11.026H344z
			 M80,176c0-30.928,25.072-56,56-56c30.928,0,56,25.072,56,56c0,30.928-25.072,56-56,56C105.087,231.965,80.035,206.913,80,176z
			 M154.848,248c-7.831,6.335-14.251,14.237-18.848,23.2c-4.597-8.963-11.017-16.865-18.848-23.2H154.848z M72,360
			c-30.928,0-56-25.072-56-56c0-30.928,25.072-56,56-56c30.928,0,56,25.072,56,56C127.965,334.913,102.913,359.965,72,360z
			 M117.152,360c7.831-6.335,14.251-14.237,18.848-23.2c4.597,8.963,11.017,16.865,18.848,23.2H117.152z M200,360
			c-30.928,0-56-25.072-56-56c0-30.928,25.072-56,56-56c30.928,0,56,25.072,56,56C255.965,334.913,230.913,359.965,200,360z
			 M408,360H245.152c30.928-24.839,35.864-70.046,11.026-100.974c-3.264-4.064-6.961-7.761-11.026-11.026H408
			c30.928,0,56,25.072,56,56C464,334.928,438.928,360,408,360z"/>
	</g>
</g>
<g>
	<g>
		<path d="M136,136c-22.091,0-40,17.909-40,40c0.026,22.08,17.92,39.974,40,40c22.091,0,40-17.909,40-40S158.091,136,136,136z
			 M136,200c-13.255,0-24-10.745-24-24s10.745-24,24-24s24,10.745,24,24S149.255,200,136,200z"/>
	</g>
</g>
</svg>
