<?xml version="1.0" encoding="iso-8859-1"?>
<!-- Generator: Adobe Illustrator 17.1.0, SVG Export Plug-In . SVG Version: 6.00 Build 0)  -->
<!DOCTYPE svg PUBLIC "-//W3C//DTD SVG 1.1//EN" "http://www.w3.org/Graphics/SVG/1.1/DTD/svg11.dtd">
<svg version="1.1" id="Capa_1" xmlns="http://www.w3.org/2000/svg" xmlns:xlink="http://www.w3.org/1999/xlink" x="0px" y="0px"
	 viewBox="0 0 191.462 191.462" style="enable-background:new 0 0 191.462 191.462;" xml:space="preserve">
<path d="M16.518,191.462c-3.25,0-6.305-1.265-8.603-3.563l-4.356-4.356c-4.744-4.744-4.744-12.463,0-17.206l43.292-43.293
	c0.938-0.938,2.598-0.938,3.535,0l3.288,3.287L82.86,97.145L52.948,67.232c-2.448-2.448-3.499-5.935-2.812-9.328
	c0.688-3.393,3.013-6.196,6.22-7.499L178.795,0.693C179.928,0.233,181.102,0,182.287,0c3.036,0,5.881,1.534,7.611,4.104
	c1.721,2.557,2.038,5.676,0.867,8.559l-49.714,122.439c-1.585,3.904-5.339,6.427-9.563,6.427c0,0,0,0,0,0
	c-2.737,0-5.316-1.072-7.262-3.019l-29.913-29.912l-29.186,29.186l3.287,3.287c0.977,0.976,0.977,2.559,0,3.535l-43.292,43.293
	C22.824,190.197,19.768,191.462,16.518,191.462z M48.619,128.347L7.094,169.872c-2.794,2.794-2.794,7.341,0,10.136l4.356,4.356
	c1.354,1.354,3.153,2.099,5.068,2.099c1.914,0,3.714-0.745,5.068-2.099l41.524-41.525L48.619,128.347z M97.849,105.063
	l29.912,29.913c1.002,1.002,2.326,1.554,3.727,1.554c2.179,0,4.115-1.298,4.931-3.308l49.714-122.439
	c0.731-1.801,0.075-3.208-0.382-3.885c-1.113-1.653-3.184-2.341-5.074-1.571L58.237,55.039c-1.675,0.68-2.842,2.086-3.201,3.858
	s0.168,3.521,1.447,4.8l29.913,29.912l31.691-31.691c1.354-1.354,3.153-2.099,5.067-2.099c1.915,0,3.714,0.745,5.068,2.099
	l1.318,1.318c1.354,1.353,2.099,3.153,2.099,5.067s-0.746,3.714-2.1,5.068L97.849,105.063z M57.21,129.866l4.382,4.382
	l63.763-63.764c1.198-1.204,1.196-3.167-0.009-4.372c-1.17-1.169-3.211-1.169-4.382,0L57.21,129.866z"/>

</svg>
