<svg width="30" height="30" xmlns="http://www.w3.org/2000/svg" xmlns:svg="http://www.w3.org/2000/svg">
 <g>
  <title>Layer 1</title>
  <g stroke="null" id="svg_1">
   <g stroke="null" id="svg_2">
    <path stroke="null" d="m28.41034,10.81599l-4.55865,-1.93234c-1.71852,-0.81772 -3.93935,-3.03769 -3.96133,-3.06001c-0.10721,-0.10747 -0.26055,-0.1561 -0.41068,-0.13075c-0.15005,0.02596 -0.27785,0.12322 -0.34266,0.26124c-0.7639,1.61996 -2.98568,2.10021 -3.03726,2.1118l-14.0946,3.87471c-0.18137,0.05019 -0.31506,0.20326 -0.33929,0.38922c-0.02483,0.18613 0.06507,0.36914 0.22654,0.46407l7.53768,4.42176c0.07234,0.0424 0.15403,0.06429 0.2364,0.06429c0.04474,0 0.09017,-0.0064 0.13412,-0.01964l18.56119,-5.56735c0.18898,-0.05651 0.32172,-0.22524 0.33228,-0.42184c0.01099,-0.1966 -0.10263,-0.37849 -0.28374,-0.45516zm-18.68311,5.49112l-6.40671,-3.7585l12.99686,-3.5741c0.09908,-0.02008 2.22507,-0.4735 3.34531,-2.07191c0.76295,0.71735 2.39061,2.16069 3.80609,2.83348l3.38451,1.43443l-17.12606,5.1366z" id="svg_3"/>
    <path stroke="null" d="m28.09406,12.66725l-18.36641,5.50894l-7.36219,-4.31879c-0.22204,-0.13075 -0.50881,-0.0559 -0.6393,0.16631c-0.13075,0.22239 -0.05607,0.50898 0.16631,0.6393l7.71342,4.52491l18.75606,-5.62576c0.24731,-0.07416 0.38783,-0.33453 0.3135,-0.58184c-0.07398,-0.24661 -0.33453,-0.38584 -0.58141,-0.31307z" id="svg_4"/>
    <path stroke="null" d="m28.09406,14.53642l-18.36641,5.50886l-7.36219,-4.31905c-0.22204,-0.13101 -0.50881,-0.05573 -0.6393,0.16657c-0.13075,0.22221 -0.05607,0.50881 0.16631,0.63938l7.71342,4.52482l18.75606,-5.62576c0.24731,-0.07416 0.38783,-0.33444 0.3135,-0.58184c-0.07398,-0.2467 -0.33453,-0.38671 -0.58141,-0.31298z" id="svg_5"/>
    <path stroke="null" d="m28.09406,16.40524l-18.36641,5.50912l-7.36219,-4.31905c-0.22204,-0.13101 -0.50881,-0.05529 -0.6393,0.16649c-0.13075,0.22221 -0.05607,0.50889 0.16631,0.63938l7.71342,4.52482l18.75606,-5.62593c0.24731,-0.0739 0.38783,-0.33444 0.3135,-0.58184c-0.07398,-0.24636 -0.33453,-0.38602 -0.58141,-0.31298z" id="svg_6"/>
    <path stroke="null" d="m28.09406,18.27432l-18.36641,5.50912l-7.36219,-4.31905c-0.22204,-0.13101 -0.50881,-0.05573 -0.6393,0.16657c-0.13075,0.22221 -0.05607,0.50881 0.16631,0.6393l7.71342,4.52491l18.75606,-5.62602c0.24731,-0.0739 0.38783,-0.33444 0.3135,-0.58184c-0.07398,-0.24636 -0.33453,-0.38645 -0.58141,-0.31298z" id="svg_7"/>
   </g>
  </g>
 </g>
</svg>