<?xml version="1.0" encoding="utf-8"?>
<!-- Generator: Adobe Illustrator 19.1.1, SVG Export Plug-In . SVG Version: 6.00 Build 0)  -->
<svg version="1.1" id="Layer_1" xmlns="http://www.w3.org/2000/svg" xmlns:xlink="http://www.w3.org/1999/xlink" x="0px" y="0px"
	 viewBox="0 0 960 560" style="enable-background:new 0 0 960 560;" xml:space="preserve">
<g>
	<g>
		<defs>
			<rect id="SVGID_1_" x="301.9" y="98.7" width="356.2" height="363.7"/>
		</defs>
		<clipPath id="SVGID_2_">
			<use xlink:href="#SVGID_1_"  style="overflow:visible;"/>
		</clipPath>
		<path class="st0" d="M313.5,440.5c-0.6,0-1.2-0.1-1.9-0.3c-1.9-0.6-3.8-1.2-5.7-1.9c-3.1-1.1-4.8-4.4-3.7-7.5
			c1.1-3.1,4.4-4.8,7.5-3.7c1.9,0.6,3.7,1.3,5.6,1.9c3.1,1,4.8,4.4,3.8,7.5C318.3,438.9,316,440.5,313.5,440.5L313.5,440.5z
			 M313.5,440.5"/>
		<path class="st0" d="M407.9,455.8c-3.2,0-5.8-2.5-5.9-5.7v-0.3c0-3.2,2.5-5.8,5.7-5.9c4.1-0.2,7.9-0.5,11.5-1
			c3.3-0.3,6.2,2,6.6,5.2c0.4,3.2-1.9,6.2-5.1,6.6c-4.1,0.5-8.2,0.8-12.5,1.1H407.9z M383.9,455.3h-0.5c-4-0.3-8.1-0.7-12.2-1.2
			c-3-0.4-5.2-2.9-5.2-5.9c0-0.3,0-0.5,0.1-0.8c0.4-3.2,3.4-5.5,6.6-5.2l0.1,0.3l0.1-0.3c3.8,0.5,7.7,0.9,11.5,1.2
			c3.3,0.2,5.7,3.1,5.5,6.4C389.6,453,387,455.3,383.9,455.3L383.9,455.3z M348.3,450c-0.4,0-0.8-0.1-1.2-0.1
			c-3.7-0.8-7.6-1.7-11.5-2.7l-0.4-0.1c-1.5-0.4-2.8-1.4-3.6-2.8c-0.8-1.4-1-3-0.6-4.4c0.8-3.2,4.1-5.1,7.3-4.3
			c3.7,1,7.6,1.9,11.5,2.7c1.5,0.4,2.9,1.3,3.7,2.6c0.9,1.3,1.1,2.9,0.8,4.4C353.5,448,351,450,348.3,450L348.3,450z M443.4,449.5
			c-2.6,0-4.9-1.6-5.6-4.1c-0.2-0.6-0.3-1.3-0.3-1.9c0-2.5,1.6-4.8,4-5.6c3.6-1.2,7.2-2.6,10.5-4.1c2.9-1.4,6.6,0,7.9,2.8
			c1.4,3,0.1,6.5-2.8,7.9c-3.6,1.7-7.4,3.2-11.5,4.6l-0.3,0.1C444.6,449.5,444,449.5,443.4,449.5L443.4,449.5z M474.6,431.9
			c-1.7,0-3.3-0.7-4.4-2c-1-1.1-1.5-2.5-1.5-4c0-1.7,0.7-3.3,1.9-4.4c2.8-2.5,5.3-5.2,7.6-8c2-2.5,5.9-2.9,8.3-0.9
			c1.2,1,2,2.4,2.2,4c0.2,1.5-0.3,3.1-1.2,4.3c-2.6,3.1-5.3,6.1-8.4,8.9l-0.5,0.5C477.4,431.4,476,431.9,474.6,431.9L474.6,431.9z
			 M494.6,402.4c-0.7,0-1.4-0.1-2.1-0.4c-2.3-0.9-3.8-3-3.9-5.5c0-0.7,0.1-1.5,0.4-2.1c1.3-3.5,2.4-7,3.3-10.8
			c0.8-3.1,4-5.2,7.1-4.4c3.2,0.7,5.2,3.9,4.4,7.1c-1,4.2-2.3,8.3-3.7,12.2C499.3,400.9,497.1,402.4,494.6,402.4L494.6,402.4z
			 M500.9,367.1L500.9,367.1c-3.3,0-5.9-2.6-5.9-5.8v-1.6c0-3.2-0.1-6.6-0.3-10c-0.1-1.6,0.3-3.2,1.4-4.3c1.1-1.2,2.5-1.9,4.1-2.1
			c3.4-0.3,6.1,2.2,6.4,5.5c0.3,3.7,0.4,7.3,0.4,10.9v1.6C506.8,364.5,504.1,367.1,500.9,367.1L500.9,367.1z M497,331.3
			c-2.7,0-5.1-1.9-5.8-4.4l-0.1-0.3c-0.1-0.1-0.1-0.2-0.1-0.3c-0.8-3.7-1.7-7.5-2.7-11.1c-0.8-3.1,1-6.4,4.2-7.3
			c3-0.8,6.4,1.1,7.3,4.2c1.1,4,2.1,8,3,12l0.1,0.3h-0.1c0.1,0.3,0.1,0.5,0.1,0.8c0,2.8-2,5.2-4.7,5.8
			C497.9,331.3,497.5,331.3,497,331.3L497,331.3z M486.8,296.8c-2.5,0-4.8-1.6-5.6-3.9c-0.9-2.3-1.7-4.3-2.5-6.5
			c-0.6-1.6-1.2-3.2-1.8-4.7c-0.6-1.5-0.5-3.1,0.1-4.5c0.6-1.5,1.8-2.5,3.3-3.1c3-1.1,6.5,0.5,7.7,3.5c0.5,1.5,1.1,3,1.7,4.5
			c0.9,2.1,1.7,4.3,2.6,6.8c0.2,0.6,0.4,1.3,0.4,2c0,2.5-1.6,4.8-3.9,5.6C488.2,296.7,487.5,296.8,486.8,296.8L486.8,296.8z
			 M474.8,262.8c-2.6,0-5-1.8-5.7-4.3c-1.2-4.1-2.2-8.2-3.1-11.9c-0.7-3.2,1.2-6.4,4.4-7.1c3.2-0.8,6.4,1.2,7.1,4.4
			c0.8,3.5,1.9,7.3,3,11.3c0.2,0.5,0.2,1.1,0.2,1.6c0.1,2.7-1.7,5-4.3,5.8C475.9,262.7,475.4,262.8,474.8,262.8L474.8,262.8z
			 M467.5,227.4c-3,0-5.5-2.3-5.9-5.2c-0.5-4.2-0.7-8.4-0.9-12.5c-0.1-3.3,2.4-6,5.7-6.1c3.3-0.3,6.1,2.4,6.2,5.7
			c0.1,3.6,0.4,7.4,0.9,11.5v0.6c0.1,3.1-2.2,5.6-5.2,6H467.5z M467.9,191.5c-0.3,0-0.6-0.1-0.9-0.1c-2.9-0.5-5-3-5-5.9
			c0-0.3,0-0.6,0.1-0.9c0.7-4.3,1.6-8.5,2.7-12.4c0.9-3.1,4.3-5,7.3-4.1c3.2,0.9,5,4.2,4.1,7.3c-1,3.5-1.8,7.1-2.3,10.7l-0.1,0.3
			C473.4,189.4,470.9,191.5,467.9,191.5L467.9,191.5z M480.1,157.9c-1.1,0-2.2-0.3-3.1-1c-1.7-1.1-2.8-3-2.8-5
			c0-1.1,0.3-2.2,0.9-3.2c2.3-3.6,4.9-7.1,7.8-10.4c2.1-2.4,6.1-2.6,8.4-0.5c2.4,2.2,2.6,5.9,0.5,8.4c-2.4,2.7-4.7,5.7-6.7,8.8
			C484,156.8,482.1,157.9,480.1,157.9L480.1,157.9z M646.6,133.9c-0.6,0-1.2-0.1-1.9-0.3c-0.1,0-0.2-0.1-0.4-0.1
			c-2.4-0.8-4-3-4.1-5.6c0-0.7,0.1-1.2,0.3-1.9c1-3,4.4-4.7,7.5-3.8c0.2,0.1,0.3,0.1,0.5,0.2c1.5,0.5,2.7,1.5,3.4,2.9
			c0.7,1.4,0.9,3,0.3,4.5C651.4,132.3,649.2,133.9,646.6,133.9L646.6,133.9z M505.8,133.1c-2.1,0-4-1.1-5.1-2.9
			c-0.5-0.9-0.8-1.9-0.8-3c0-2.1,1.1-4.1,3-5.2c3.6-2.1,7.5-4,11.5-5.7c3-1.2,6.5,0.3,7.8,3.2c1.2,3-0.2,6.5-3.2,7.8
			c-3.5,1.4-6.9,3.2-10,5C508,132.9,506.9,133.1,505.8,133.1L505.8,133.1z M623.1,127c-0.5,0-1-0.1-1.5-0.1
			c-4.2-1.1-7.9-1.9-11.5-2.7c-2.8-0.6-4.8-3-4.8-5.8c0-0.4,0.1-0.8,0.1-1.2c0.6-3.1,3.9-5.2,7-4.6c3.9,0.8,7.9,1.8,11.9,2.8
			c3.1,0.8,5.1,4,4.3,7.2C628.1,125.2,625.8,127,623.1,127L623.1,127z M539.7,121.2c-2.9,0-5.3-2.1-5.8-4.9
			c-0.1-0.3-0.1-0.7-0.1-1.1c0-2.8,2.1-5.3,4.9-5.7c3.9-0.7,8.1-1.2,12.5-1.6c3.3-0.3,6.1,2.2,6.4,5.4c0.2,3.3-2.2,6.2-5.5,6.4
			c-3.9,0.3-7.7,0.8-11.4,1.5C540.3,121.2,540,121.2,539.7,121.2L539.7,121.2z M587.6,120.5c-0.2,0-0.4,0-0.6-0.1
			c-3.9-0.4-7.9-0.8-11.7-1c-3.1-0.1-5.6-2.8-5.6-5.9v-0.3c0.2-3.3,3-5.7,6.2-5.6c3.9,0.2,8,0.5,12.3,1c1.5,0.2,3,1,3.9,2.2
			c1,1.2,1.5,2.8,1.3,4.4C593.2,118.3,590.6,120.5,587.6,120.5L587.6,120.5z M587.6,120.5"/>
		<path class="st0" d="M652.2,135.8c-0.6,0-1.3-0.1-1.9-0.3c-1.9-0.6-3.7-1.3-5.6-1.9c-3.1-1-4.8-4.4-3.8-7.5c1-3.1,4.3-4.8,7.5-3.8
			c1.9,0.6,3.8,1.3,5.7,1.9c3.1,1.1,4.8,4.5,3.7,7.6C657,134.2,654.6,135.8,652.2,135.8L652.2,135.8z M652.2,135.8"/>
		<path class="st0" d="M331.6,462.3c-2.5,0-4.8-1.5-5.6-4c-26.4-77.1-21.8-140.2,12.6-173c31.3-29.8,83.8-32.2,147.9-6.7
			c59,23.5,106.4,22.2,133.6-3.7c30.6-29.2,33.8-87.9,8.7-161c-1.1-3.1,0.6-6.5,3.7-7.5c3.1-1,6.5,0.6,7.6,3.7
			c26.6,77.8,22.3,141-11.8,173.5c-30.7,29.2-82.6,31.4-146.1,6.1c-59.5-23.7-107.6-22.2-135.3,4.3c-30.9,29.5-34.4,87.9-9.6,160.5
			c1.1,3.1-0.6,6.5-3.7,7.5C332.8,462.2,332.2,462.3,331.6,462.3L331.6,462.3z M331.6,462.3"/>
	</g>
	<path d="M449.2,447.3c-1.5,0-3.1-0.6-4.2-1.7L320.2,320.7c-2.3-2.3-2.3-6.1,0-8.4c2.3-2.3,6.1-2.3,8.4,0l124.9,124.9
		c2.3,2.3,2.3,6.1,0,8.4C452.3,446.7,450.8,447.3,449.2,447.3L449.2,447.3z M449.2,447.3"/>
	<path d="M390.4,455.6c-1.5,0-3-0.6-4.2-1.7l-75.3-75.3c-2.3-2.3-2.3-6.1,0-8.4c2.3-2.4,6.1-2.4,8.4,0l75.3,75.3
		c2.3,2.3,2.3,6.1,0,8.4C393.4,455.1,391.9,455.6,390.4,455.6L390.4,455.6z M390.4,455.6"/>
	<path d="M651.4,200.4c-1.5,0-3-0.6-4.2-1.7L566,117.6c-2.3-2.4-2.3-6.1,0-8.4c2.3-2.3,6.1-2.3,8.4,0l81.1,81.1
		c2.3,2.3,2.3,6.1,0,8.4C654.4,199.8,652.9,200.4,651.4,200.4L651.4,200.4z M651.4,200.4"/>
	<path d="M642.3,258.5c-1.5,0-3-0.6-4.2-1.7L509,127.7c-2.3-2.3-2.3-6.1,0-8.4c2.3-2.3,6.1-2.3,8.4,0l129.1,129.1
		c2.3,2.3,2.3,6.1,0,8.4C645.3,257.9,643.8,258.5,642.3,258.5L642.3,258.5z M642.3,258.5"/>
	<path d="M611.4,294.8c-1.5,0-3-0.6-4.2-1.7L473.9,159.8c-2.3-2.3-2.3-6.1,0-8.4c2.3-2.3,6.1-2.3,8.4,0l133.3,133.3
		c2.3,2.3,2.3,6.1,0,8.4C614.5,294.3,612.9,294.8,611.4,294.8L611.4,294.8z M611.4,294.8"/>
	<path d="M556.6,307.2c-1.5,0-3-0.6-4.2-1.7l-89.7-89.7c-2.3-2.3-2.3-6.1,0-8.4c2.3-2.3,6.1-2.3,8.4,0l89.7,89.7
		c2.3,2.4,2.3,6.1,0,8.4C559.6,306.6,558.1,307.2,556.6,307.2L556.6,307.2z M556.6,307.2"/>
	<path d="M500.9,364.6c-1.5,0-3-0.6-4.2-1.7l-91.5-91.5c-2.4-2.3-2.4-6.1,0-8.4c2.3-2.3,6.1-2.3,8.4,0l91.5,91.5
		c2.3,2.3,2.3,6.1,0,8.4C503.9,364,502.4,364.6,500.9,364.6L500.9,364.6z M500.9,364.6"/>
	<path d="M486.8,417.7c-1.5,0-3-0.6-4.2-1.7L351,284.4c-2.3-2.3-2.3-6.1,0-8.4c2.3-2.3,6.1-2.3,8.4,0l131.6,131.6
		c2.3,2.3,2.3,6.1,0,8.4C489.8,417.1,488.3,417.7,486.8,417.7L486.8,417.7z M486.8,417.7"/>
</g>
</svg>
