
<?xml version="1.0" encoding="utf-8"?>
<!-- Generator: Adobe Illustrator 19.1.1, SVG Export Plug-In . SVG Version: 6.00 Build 0)  -->
<svg version="1.1" id="Layer_1" xmlns="http://www.w3.org/2000/svg" xmlns:xlink="http://www.w3.org/1999/xlink" x="0px" y="0px"
	 viewBox="0 0 960 560" style="enable-background:new 0 0 960 560;" xml:space="preserve">
<path d="M634.5,239h-56.1v-67.2l1.3-1.4c6.5-7.3,10-16.6,10-26.3c0-21.8-17.7-39.5-39.5-39.5c-9.7,0-19.1,3.6-26.3,10l-1.4,1.3
	H362.9l-1.4-1.3c-7.3-6.5-16.6-10-26.3-10c-21.8,0-39.5,17.7-39.5,39.5c0,9.7,3.6,19.1,10,26.3l1.3,1.4v216.1l-1.3,1.4
	c-6.5,7.3-10,16.6-10,26.3c0,21.8,17.7,39.5,39.5,39.5c9.7,0,19.1-3.6,26.3-10l1.4-1.3h122.5c5.4,7.1,14,11.6,23.6,11.6h125.5
	c16.4,0,29.8-13.3,29.8-29.8v-157C664.2,252.3,650.9,239,634.5,239z M509,239c-16.4,0-29.8,13.3-29.8,29.8V311H318.1v-79.4h249.1
	v7.5H509V239z M306.8,144.1c0-15.6,12.7-28.4,28.4-28.4c8.1,0,15.8,3.4,21.1,9.5c1.1,1.2,2.6,1.9,4.1,1.9h164.4
	c1.6,0,3.1-0.7,4.1-1.8c5.4-6,13.1-9.5,21.1-9.5c15.6,0,28.4,12.7,28.4,28.4c0,8.1-3.4,15.8-9.5,21.1c-1.2,1.1-1.9,2.6-1.9,4.1v51
	H318.1v-51c0-1.6-0.7-3.1-1.9-4.1C310.2,159.8,306.8,152.1,306.8,144.1z M360.4,432.7c-1.6,0-3.1,0.7-4.1,1.9
	c-5.4,6-13.1,9.5-21.1,9.5c-15.7,0-28.4-12.7-28.4-28.4c0-8.1,3.4-15.8,9.5-21.1c1.2-1.1,1.9-2.6,1.9-4.1v-68.3h161v103.7
	c0,2.4,0.3,4.8,0.8,7H360.4V432.7z M491.2,310.9v-42.2c0-9.8,8-17.8,17.8-17.8h125.5c9.8,0,17.8,8,17.8,17.8v157
	c0,9.8-8,17.8-17.8,17.8H509c-9.8,0-17.8-8-17.8-17.8V322"/>
</svg>
