<svg width="30" height="30" xmlns="http://www.w3.org/2000/svg" xmlns:svg="http://www.w3.org/2000/svg">
 <g>
  <title>Layer 1</title>
  <g stroke="null" id="svg_14">
   <g stroke="null" id="svg_1">
    <g stroke="null" id="svg_2">
     <path stroke="null" d="m5.82689,16.71619c-1.28454,0 -2.3259,1.04137 -2.3259,2.3259c0,1.28454 1.04137,2.3259 2.3259,2.3259s2.3259,-1.04137 2.3259,-2.3259c-0.00151,-1.2839 -1.042,-2.32439 -2.3259,-2.3259zm0,3.72145c-0.77075,0 -1.39554,-0.6248 -1.39554,-1.39554s0.6248,-1.39554 1.39554,-1.39554s1.39554,0.6248 1.39554,1.39554s-0.6248,1.39554 -1.39554,1.39554z" id="svg_3"/>
    </g>
   </g>
   <g stroke="null" id="svg_13">
    <g stroke="null" id="svg_4">
     <g stroke="null" id="svg_5">
      <path stroke="null" d="m13.22671,16.68173c-1.27978,0 -2.31729,1.03751 -2.31729,2.31729c0,1.27978 1.03751,2.31729 2.31729,2.31729s2.31729,-1.03751 2.31729,-2.31729c-0.00151,-1.27914 -1.03815,-2.31578 -2.31729,-2.31729zm0,3.70766c-0.76789,0 -1.39037,-0.62248 -1.39037,-1.39037s0.62248,-1.39037 1.39037,-1.39037s1.39037,0.62248 1.39037,1.39037s-0.62248,1.39037 -1.39037,1.39037z" id="svg_6"/>
     </g>
    </g>
    <g stroke="null" id="svg_7">
     <g stroke="null" id="svg_8">
      <path stroke="null" d="m25.27661,14.8279l-1.09191,0c1.79352,-1.44286 2.0778,-4.06644 0.63494,-5.85996c-0.79188,-0.98433 -1.98742,-1.55635 -3.25069,-1.55536l-12.04991,0c-2.30188,-0.0018 -4.16933,1.86281 -4.17112,4.16463c-0.00098,1.26327 0.57104,2.45882 1.55536,3.25069l-1.09191,0c-2.30368,0 -4.17112,1.86745 -4.17112,4.17112c0,2.30362 1.86745,4.17112 4.17112,4.17112l19.46523,0c2.30368,0 4.17112,-1.8675 4.17112,-4.17112c0,-2.30368 -1.86745,-4.17112 -4.17112,-4.17112zm-3.70766,-6.48841c1.79173,0 3.24421,1.45248 3.24421,3.24421c0,1.79173 -1.45248,3.24421 -3.24421,3.24421l-9.43415,0c1.79173,-1.43898 2.07768,-4.05792 0.63876,-5.84965c-0.18909,-0.23544 -0.40327,-0.44961 -0.63876,-0.63876l9.43415,0zm-15.29411,3.24421c0,-1.79173 1.45248,-3.24421 3.24421,-3.24421c1.79173,0 3.24421,1.45248 3.24421,3.24421c0,1.79173 -1.45248,3.24421 -3.24421,3.24421c-1.79086,-0.00203 -3.24218,-1.45335 -3.24421,-3.24421zm4.33611,4.17112c-0.45367,0.367 -0.82559,0.82478 -1.09191,1.34403c-0.26631,-0.51925 -0.63824,-0.97703 -1.09191,-1.34403l2.18381,0zm-4.79957,6.48841c-1.79173,0 -3.24421,-1.45248 -3.24421,-3.24421c0,-1.79173 1.45248,-3.24421 3.24421,-3.24421c1.79173,0 3.24421,1.45248 3.24421,3.24421c-0.00203,1.79086 -1.45335,3.24218 -3.24421,3.24421zm2.61576,0c0.45367,-0.367 0.82559,-0.82478 1.09191,-1.34403c0.26631,0.51925 0.63824,0.97703 1.09191,1.34403l-2.18381,0zm4.79957,0c-1.79173,0 -3.24421,-1.45248 -3.24421,-3.24421c0,-1.79173 1.45248,-3.24421 3.24421,-3.24421c1.79173,0 3.24421,1.45248 3.24421,3.24421c-0.00203,1.79086 -1.45335,3.24218 -3.24421,3.24421zm12.04991,0l-9.43415,0c1.79173,-1.43898 2.07768,-4.05792 0.63876,-5.84965c-0.18909,-0.23544 -0.40327,-0.44961 -0.63876,-0.63876l9.43415,0c1.79173,0 3.24421,1.45248 3.24421,3.24421c0,1.79173 -1.45248,3.24421 -3.24421,3.24421z" id="svg_9"/>
     </g>
    </g>
    <g stroke="null" id="svg_10">
     <g stroke="null" id="svg_11">
      <path stroke="null" d="m9.51904,9.26641c-1.27978,0 -2.31729,1.03751 -2.31729,2.31729c0.00151,1.27914 1.03815,2.31578 2.31729,2.31729c1.27978,0 2.31729,-1.03751 2.31729,-2.31729s-1.03751,-2.31729 -2.31729,-2.31729zm0,3.70766c-0.76789,0 -1.39037,-0.62248 -1.39037,-1.39037s0.62248,-1.39037 1.39037,-1.39037s1.39037,0.62248 1.39037,1.39037s-0.62248,1.39037 -1.39037,1.39037z" id="svg_12"/>
     </g>
    </g>
   </g>
  </g>
 </g>
</svg>