<svg width="30" height="30" xmlns="http://www.w3.org/2000/svg" xmlns:svg="http://www.w3.org/2000/svg">
 <g>
  <title>Layer 1</title>
  <path fill="black" d="m28.66742,7.36333c0,-0.00796 -0.00299,-0.01493 -0.00348,-0.02289c-0.00199,-0.03682 -0.00647,-0.07265 -0.01592,-0.10748c-0.00448,-0.01493 -0.01144,-0.02836 -0.01741,-0.04279c-0.01045,-0.02687 -0.0204,-0.05274 -0.03533,-0.07712c-0.00896,-0.01493 -0.0204,-0.02786 -0.03035,-0.0413c-0.01592,-0.0214 -0.03234,-0.04229 -0.05125,-0.0607c-0.01294,-0.01244 -0.02786,-0.02339 -0.04229,-0.03433c-0.01343,-0.01045 -0.02488,-0.02289 -0.03931,-0.03234c-0.00846,-0.00498 -0.01791,-0.00746 -0.02637,-0.01194c-0.00697,-0.00398 -0.01244,-0.00995 -0.0199,-0.01343l-13.43439,-6.46841c-0.14131,-0.06817 -0.30601,-0.06568 -0.44533,0.00697l-12.43925,6.46841c-0.00547,0.00299 -0.00896,0.00746 -0.01443,0.01045c-0.00547,0.00299 -0.01194,0.00448 -0.01791,0.00796c-0.01692,0.01045 -0.02985,0.02438 -0.04528,0.03682c-0.01443,0.01144 -0.02985,0.02189 -0.04329,0.03483c-0.01891,0.01891 -0.03383,0.03981 -0.04926,0.0612c-0.00995,0.01393 -0.02189,0.02637 -0.03035,0.0413c-0.01542,0.02637 -0.02587,0.05473 -0.03583,0.08359c-0.00448,0.01244 -0.01095,0.02339 -0.01443,0.03632c-0.01095,0.0408 -0.01741,0.08409 -0.01741,0.12837l0,15.92224c0,0.18858 0.10648,0.36074 0.27516,0.44533l12.93682,6.46841c0.00746,0.00348 0.01542,0.00199 0.02289,0.00547c0.06419,0.02786 0.13086,0.04677 0.19953,0.04677s0.13584,-0.01891 0.19953,-0.04727c0.00746,-0.00348 0.01592,-0.00199 0.02289,-0.00547l12.93682,-6.46841c0.16868,-0.08409 0.27516,-0.25625 0.27516,-0.44483l0,-15.92224c0,-0.0005 0,-0.001 0,-0.00199c0,-0.0005 0,-0.001 0,-0.00149zm-13.9235,-5.90864l12.29645,5.92058l-11.80733,5.90367l-11.84167,-5.92058l11.35256,-5.90367zm-11.95014,6.71719l11.94168,5.97084l0,14.80967l-11.94168,-5.97084l0,-14.80967zm24.8785,14.80967l-11.94168,5.97084l0,-14.80967l11.94168,-5.97084l0,14.80967z" id="svg_1"/>
 </g>
</svg>