<svg width="30" height="30" xmlns="http://www.w3.org/2000/svg" xmlns:svg="http://www.w3.org/2000/svg">
 <g>
  <title>Layer 1</title>
  <path id="svg_1" d="m26.06402,12.04278l-4.0742,0l0,-4.88033l0.09441,-0.10167c0.47206,-0.53015 0.72624,-1.20556 0.72624,-1.91001c0,-1.5832 -1.28544,-2.86864 -2.86864,-2.86864c-0.70445,0 -1.38712,0.26145 -1.91001,0.72624l-0.10167,0.09441l-11.59078,0l-0.10167,-0.09441c-0.53015,-0.47206 -1.20556,-0.72624 -1.91001,-0.72624c-1.5832,0 -2.86864,1.28544 -2.86864,2.86864c0,0.70445 0.26145,1.38712 0.72624,1.91001l0.09441,0.10167l0,15.69403l-0.09441,0.10167c-0.47206,0.53015 -0.72624,1.20556 -0.72624,1.91001c0,1.5832 1.28544,2.86864 2.86864,2.86864c0.70445,0 1.38712,-0.26145 1.91001,-0.72624l0.10167,-0.09441l8.89643,0c0.39217,0.51563 1.01673,0.84244 1.71392,0.84244l9.1143,0c1.19103,0 2.16419,-0.9659 2.16419,-2.16419l0,-11.40195c-0.00726,-1.18377 -0.97316,-2.14967 -2.16419,-2.14967zm-9.1143,0c-1.19103,0 -2.16419,0.9659 -2.16419,2.16419l0,3.06473l-11.69971,0l0,-5.76634l18.09062,0l0,0.54468l-4.22671,0l0,-0.00726l-0.00001,0zm-14.68455,-6.89201c0,-1.13293 0.92232,-2.06252 2.06252,-2.06252c0.58825,0 1.14746,0.24692 1.53236,0.68993c0.07989,0.08715 0.18882,0.13799 0.29776,0.13799l11.93937,0c0.1162,0 0.22513,-0.05084 0.29776,-0.13072c0.39217,-0.43574 0.95137,-0.68993 1.53236,-0.68993c1.13293,0 2.06252,0.92232 2.06252,2.06252c0,0.58825 -0.24692,1.14746 -0.68993,1.53236c-0.08715,0.07989 -0.13799,0.18882 -0.13799,0.29776l0,3.70382l-18.07609,0l0,-3.70382c0,-0.1162 -0.05084,-0.22513 -0.13799,-0.29776c-0.43574,-0.39943 -0.68266,-0.95864 -0.68266,-1.53963l0.00001,0zm3.89264,20.95926c-0.1162,0 -0.22513,0.05084 -0.29776,0.13799c-0.39217,0.43574 -0.95137,0.68993 -1.53236,0.68993c-1.1402,0 -2.06252,-0.92232 -2.06252,-2.06252c0,-0.58825 0.24692,-1.14746 0.68993,-1.53236c0.08715,-0.07989 0.13799,-0.18882 0.13799,-0.29776l0,-4.96021l11.69245,0l0,7.5311c0,0.1743 0.02179,0.34859 0.0581,0.50837l-8.68582,0l0,-0.01452l-0.00001,-0.00002zm9.49921,-8.84559l0,-3.06473c0,-0.71171 0.58099,-1.29271 1.29271,-1.29271l9.1143,0c0.71171,0 1.29271,0.58099 1.29271,1.29271l0,11.40195c0,0.71171 -0.58099,1.29271 -1.29271,1.29271l-9.1143,0c-0.71171,0 -1.29271,-0.58099 -1.29271,-1.29271l0,-7.5311"/>
 </g>
</svg>