<svg width="30" height="30" xmlns="http://www.w3.org/2000/svg" xmlns:svg="http://www.w3.org/2000/svg">
 <g>
  <title>Layer 1</title>
  <path d="m18.9153,29.06162c-0.2434,0 -0.43968,-0.19629 -0.43968,-0.43968c0,-0.23554 0.19629,-0.43183 0.43968,-0.43183l1.57814,0l0,-15.88349l-1.81369,0l0,5.59809c0,1.71947 -1.39756,3.11703 -3.11703,3.11703l-6.69729,0c-1.71947,0 -3.11703,-1.39756 -3.11703,-3.11703l0,-5.59809l-1.82154,0l0,15.88349l1.57814,0c0.2434,0 0.43968,0.19629 0.43968,0.43183c0,0.2434 -0.19629,0.43968 -0.43968,0.43968l-4.01994,0c-0.23554,0 -0.43183,-0.19629 -0.43183,-0.43968c0,-0.23554 0.19629,-0.43183 0.43183,-0.43183l1.57029,0l0,-16.74715l2.69305,0l0,-2.48106l-0.23554,0c-0.23554,0 -0.43183,-0.19629 -0.43183,-0.43183c0,-0.23554 0.19629,-0.43183 0.43183,-0.43183l0.40042,0l2.22196,-4.44392l-0.18058,-0.11777c-0.12562,-0.07851 -0.20414,-0.21984 -0.20414,-0.36902c0,-0.2434 0.19629,-0.43183 0.43183,-0.43183l8.03989,0c0.2434,0 0.43968,0.19629 0.43968,0.43183c0,0.14918 -0.07851,0.28265 -0.20414,0.36902l-0.18058,0.11777l2.22196,4.44392l0.40828,0c0.23554,0 0.43183,0.19629 0.43183,0.43183c0,0.2434 -0.19629,0.43183 -0.43183,0.43183l-0.23554,0l0,2.48106l4.49103,0l0,-4.25549c0,-0.2434 0.19629,-0.43183 0.43183,-0.43183l5.37039,0c0.23554,0 0.43183,0.19629 0.43183,0.43183c0,0.2434 -0.19629,0.43183 -0.43183,0.43183l-4.93071,0l0,4.25549c0,0.23554 -0.19629,0.43183 -0.43183,0.43183l-2.24552,0l0,15.88349l1.57814,0c0.23554,0 0.43183,0.19629 0.43183,0.43183c0,0.2434 -0.19629,0.43968 -0.43183,0.43968l-4.01994,0l0.00001,0zm-12.29538,-11.15692c0,1.24053 1.00499,2.24552 2.24552,2.24552l6.69729,0c1.24053,0 2.24552,-1.00499 2.24552,-2.24552l0,-8.94281l-11.18832,0l0,8.94281l0,0l-0.00001,0zm0.2748,-9.81432l10.64657,0l-2.24552,-4.49103l-6.16339,0l-2.23766,4.49103l0,0z" id="svg_1"/>
 </g>
</svg>