<svg width="30" height="30" xmlns="http://www.w3.org/2000/svg" xmlns:svg="http://www.w3.org/2000/svg">
 <g>
  <title>Layer 1</title>
  <g stroke="null" id="svg_13">
   <g stroke="null" id="svg_1">
    <g stroke="null" id="svg_2">
     <path stroke="null" d="m15.32076,17.07542l-1.45315,0c-0.0916,-0.27699 -0.20394,-0.54667 -0.33614,-0.80673l1.03427,-1.03427c0.20052,-0.20168 0.20052,-0.52748 0,-0.72916l-1.86168,-1.86168c-0.20168,-0.20052 -0.52748,-0.20052 -0.72916,0l-1.03427,1.03427c-0.2554,-0.12637 -0.51991,-0.23355 -0.79121,-0.32062l0,-1.45315c0,-0.28559 -0.23155,-0.51713 -0.51713,-0.51713l-2.64772,0c-0.28559,0 -0.51713,0.23155 -0.51713,0.51713l0,1.51003c-0.2607,0.08869 -0.51474,0.1958 -0.76019,0.32062l-1.07564,-1.0704c-0.20168,-0.20052 -0.52748,-0.20052 -0.72916,0l-1.85651,1.85644c-0.20052,0.20168 -0.20052,0.52748 0,0.72916l1.08598,1.08598c-0.12036,0.23904 -0.22405,0.48611 -0.31028,0.7395l-1.5514,0c-0.28559,0 -0.51713,0.23155 -0.51713,0.51713l0,2.63221c0,0.28559 0.23155,0.51713 0.51713,0.51713l1.5514,0c0.08403,0.25676 0.18597,0.50737 0.30511,0.74984l-1.08081,1.09632c-0.20052,0.20168 -0.20052,0.52748 0,0.72916l1.86168,1.86168c0.20168,0.20052 0.52748,0.20052 0.72916,0l1.07047,-1.07047c0.24551,0.12469 0.49955,0.23187 0.76019,0.32062l0,1.51003c0,0.28559 0.23155,0.51713 0.51713,0.51713l2.63221,0c0.28559,0 0.51713,-0.23155 0.51713,-0.51713l0,-1.479c0.2713,-0.0872 0.53575,-0.19431 0.79121,-0.32062l1.03427,1.03427c0.20168,0.20052 0.52748,0.20052 0.72916,0l1.86168,-1.86168c0.20052,-0.20168 0.20052,-0.52748 0,-0.72916l-1.03427,-1.03427c0.13239,-0.25999 0.24473,-0.52967 0.33614,-0.80673l1.45315,0c0.28559,0 0.51713,-0.23155 0.51713,-0.51713l0,-2.63221c0.00013,-0.27964 -0.22211,-0.50873 -0.50162,-0.51713zm-0.51713,2.63221l-1.32386,0c-0.24189,-0.00763 -0.45676,0.15346 -0.51713,0.38785c-0.11002,0.4468 -0.28423,0.87531 -0.51713,1.27215c-0.12172,0.20323 -0.08972,0.46322 0.07757,0.6309l0.93601,0.93601l-1.13252,1.12735l-0.94635,-0.94635c-0.16561,-0.16645 -0.42256,-0.20039 -0.62573,-0.08274c-0.39528,0.23232 -0.82198,0.40653 -1.26698,0.51713c-0.23639,0.05837 -0.40013,0.27369 -0.39302,0.51713l0,1.35489l-1.59277,0l0,-1.37557c0.00763,-0.24189 -0.15346,-0.45676 -0.38785,-0.51713c-0.43439,-0.11293 -0.85056,-0.28707 -1.23595,-0.51713c-0.20323,-0.12172 -0.46322,-0.08972 -0.6309,0.07757l-0.98255,0.98255l-1.12735,-1.11701l0.97738,-0.9929c0.16645,-0.16561 0.20039,-0.42256 0.08274,-0.62573c-0.22883,-0.38236 -0.40291,-0.7949 -0.51713,-1.22561c-0.06038,-0.23439 -0.27524,-0.39548 -0.51713,-0.38785l-1.36523,0l0,-1.61346l1.41177,0c0.24189,0.00763 0.45676,-0.15346 0.51713,-0.38785c0.11455,-0.43058 0.28856,-0.84312 0.51713,-1.22561c0.10091,-0.2108 0.0479,-0.46303 -0.12928,-0.61539l-0.97738,-0.9929l1.13252,-1.12735l0.98255,0.98255c0.16768,0.16729 0.42767,0.19929 0.6309,0.07757c0.38565,-0.22954 0.80175,-0.40369 1.23595,-0.51713c0.23232,-0.06238 0.39089,-0.27673 0.38268,-0.51713l0,-1.36523l1.59794,0l0,1.35489c-0.00711,0.24344 0.15663,0.45876 0.39302,0.51713c0.44499,0.11054 0.87169,0.28475 1.26698,0.51713c0.20317,0.11765 0.46012,0.08371 0.62573,-0.08274l0.94635,-0.95153l1.13252,1.12735l-0.94118,0.94118c-0.16729,0.16768 -0.19929,0.42767 -0.07757,0.6309c0.23316,0.39671 0.40737,0.82528 0.51713,1.27215c0.06038,0.23439 0.27524,0.39548 0.51713,0.38785l1.32386,0l0,1.57209z" id="svg_3"/>
    </g>
   </g>
   <g stroke="null" id="svg_4">
    <g stroke="null" id="svg_5">
     <path stroke="null" d="m8.30326,16.04122c-1.59936,0 -2.89595,1.29658 -2.89595,2.89595s1.29658,2.89595 2.89595,2.89595c1.59936,0 2.89595,-1.29658 2.89595,-2.89595c-0.00284,-1.59827 -1.29775,-2.8931 -2.89595,-2.89595zm0,4.74205l0,0.01551c-1.02819,0 -1.86168,-0.83349 -1.86168,-1.86168s0.83349,-1.86168 1.86168,-1.86168c1.02819,0 1.86168,0.83349 1.86168,1.86168c-0.00853,1.02211 -0.8395,1.84623 -1.86168,1.84617z" id="svg_6"/>
    </g>
   </g>
   <g stroke="null" id="svg_7">
    <g stroke="null" id="svg_8">
     <path stroke="null" d="m29.17496,9.86005c-0.00162,-0.00821 -0.00336,-0.01635 -0.00537,-0.02443l-0.5585,-2.54947c-0.0618,-0.27822 -0.33704,-0.45398 -0.61539,-0.39302l-1.41695,0.31028c-0.15391,-0.25075 -0.32676,-0.48934 -0.51713,-0.71364l0.80673,-1.23078c0.15378,-0.24001 0.08442,-0.55915 -0.15514,-0.71364l-2.22367,-1.43246c-0.24001,-0.15378 -0.55915,-0.08442 -0.71364,0.15514l-0.79639,1.24112c-0.27699,-0.06923 -0.55876,-0.11765 -0.84293,-0.1448l-0.31545,-1.44797c-0.064,-0.27835 -0.34157,-0.4521 -0.61985,-0.38804c-0.00718,0.00162 -0.01429,0.00343 -0.0214,0.00537l-2.58567,0.56368c-0.27815,0.0618 -0.45398,0.33704 -0.39302,0.61539l0.36199,1.46866c-0.23678,0.14241 -0.46316,0.30136 -0.67744,0.47576l-1.27732,-0.81714c-0.24001,-0.15378 -0.55915,-0.08442 -0.71364,0.15514l-1.43763,2.21857c-0.15378,0.24001 -0.08442,0.55915 0.15514,0.71364l1.29283,0.82741c-0.06503,0.26186 -0.1117,0.52799 -0.13963,0.79639l-1.50486,0.33097c-0.27822,0.0618 -0.45398,0.33704 -0.39302,0.61539l0.56368,2.58567c0.0618,0.27822 0.33704,0.45398 0.61539,0.39302l1.50486,-0.32579c0.14835,0.22838 0.31254,0.44609 0.49128,0.65159l-0.82741,1.29283c-0.15378,0.24001 -0.08442,0.55915 0.15514,0.71364l2.21333,1.42212c0.24001,0.15378 0.55915,0.08442 0.71364,-0.15514l0.81707,-1.27732c0.26671,0.06936 0.53801,0.11946 0.8119,0.14997l0.32062,1.47383c0.05204,0.2426 0.26904,0.41403 0.51713,0.40854l0.1086,0l2.58567,-0.5585c0.26232,-0.08436 0.41241,-0.35954 0.34131,-0.62573l-0.31545,-1.44797c0.24577,-0.14305 0.4808,-0.30382 0.7033,-0.48093l1.25663,0.80673c0.24001,0.15378 0.55915,0.08442 0.71364,-0.15514l1.42212,-2.2185c0.15889,-0.2373 0.09535,-0.5585 -0.14195,-0.71739c-0.00601,-0.00407 -0.01215,-0.00795 -0.01836,-0.01176l-1.22561,-0.78604c0.07337,-0.28184 0.12521,-0.56878 0.15514,-0.85844l1.41695,-0.31028c0.28035,-0.05462 0.46335,-0.32612 0.40873,-0.60647zm-2.41521,0.01176c-0.22954,0.049 -0.39729,0.24648 -0.40854,0.48093c-0.0159,0.46303 -0.09955,0.92127 -0.24822,1.36006c-0.07524,0.22489 0.01215,0.47221 0.21202,0.59987l1.11701,0.71364l-0.86361,1.34455l-1.12735,-0.72399c-0.19864,-0.12715 -0.45818,-0.10375 -0.6309,0.05688c-0.33685,0.30963 -0.71649,0.56917 -1.12735,0.77053c-0.21416,0.1042 -0.32948,0.34118 -0.27925,0.57402l0.28959,1.32386l-1.5514,0.34131l-0.29477,-1.34455c-0.049,-0.22954 -0.24648,-0.39729 -0.48093,-0.40854c-0.44913,-0.01984 -0.89309,-0.10343 -1.31869,-0.24822c-0.05339,-0.01758 -0.10931,-0.02631 -0.16548,-0.02586c-0.17583,0.00032 -0.33943,0.08992 -0.43439,0.23788l-0.74984,1.16872l-1.34455,-0.86361l0.72399,-1.18941c0.12715,-0.19864 0.10375,-0.45818 -0.05688,-0.6309c-0.30117,-0.32683 -0.55534,-0.69406 -0.75501,-1.09115c-0.10588,-0.21215 -0.34247,-0.32508 -0.57402,-0.27408l-1.37557,0.29994l-0.34131,-1.5514l1.37557,-0.29994c0.23135,-0.04952 0.39955,-0.24971 0.40854,-0.48611c0.03271,-0.449 0.12844,-0.89121 0.28442,-1.31352c0.07259,-0.2234 -0.01448,-0.46762 -0.21202,-0.5947l-1.17906,-0.75501l0.86361,-1.34455l1.13769,0.73433c0.19981,0.12987 0.46251,0.10634 0.63607,-0.05688c0.32696,-0.30905 0.69606,-0.5702 1.09632,-0.7757c0.20795,-0.10698 0.31823,-0.34021 0.26891,-0.56885l-0.29477,-1.34455l1.5514,-0.34131l0.28959,1.32386c0.05204,0.2426 0.26904,0.41403 0.51713,0.40854c0.45708,0.01215 0.90996,0.0905 1.34455,0.23271c0.2234,0.07259 0.46762,-0.01448 0.5947,-0.21202l0.72399,-1.12735l1.34455,0.86361l-0.71882,1.11701c-0.12851,0.20097 -0.10284,0.46374 0.06206,0.63607c0.30866,0.3384 0.56646,0.71991 0.76536,1.13252c0.10588,0.21215 0.34247,0.32515 0.57402,0.27408l1.29283,-0.27925l0.34131,1.5514l-1.28249,0.30511z" id="svg_9"/>
    </g>
   </g>
   <g stroke="null" id="svg_10">
    <g stroke="null" id="svg_11">
     <path stroke="null" d="m24.36026,9.56154c-0.28585,-1.33291 -1.46549,-2.28398 -2.82872,-2.28056c-1.59936,-0.00058 -2.8964,1.29548 -2.89705,2.89485s1.29548,2.8964 2.89485,2.89705c1.59936,0.00058 2.8964,-1.29548 2.89705,-2.89485c0.00006,-0.20731 -0.02211,-0.41397 -0.06613,-0.61649zm-2.44087,2.4357l0.00517,0c-1.00227,0.2031 -1.98463,-0.42657 -2.2185,-1.42212c-0.21784,-1.00498 0.41797,-1.99685 1.42212,-2.2185c0.1309,-0.0278 0.26438,-0.04163 0.39819,-0.04137c1.02819,-0.00149 1.86291,0.83077 1.8644,1.85897c0.00129,0.87874 -0.61209,1.63873 -1.47137,1.82302z" id="svg_12"/>
    </g>
   </g>
  </g>
 </g>
</svg>