<svg width="30" height="30" xmlns="http://www.w3.org/2000/svg" xmlns:svg="http://www.w3.org/2000/svg">
 <g>
  <title>Layer 1</title>
  <path fill="black" d="m2.5829,29.92892c-0.50803,0 -0.98558,-0.19774 -1.3448,-0.55696l-0.68092,-0.68092c-0.74157,-0.74157 -0.74157,-1.94819 0,-2.6896l6.76731,-6.76747c0.14663,-0.14663 0.40611,-0.14663 0.55258,0l0.51397,0.51382l4.56229,-4.56229l-4.67578,-4.67593c-0.38267,-0.38267 -0.54696,-0.92775 -0.43957,-1.45813c0.10755,-0.53039 0.47099,-0.96855 0.9723,-1.17223l19.1394,-7.77087c0.17711,-0.07191 0.36063,-0.10833 0.54586,-0.10833c0.47458,0 0.91931,0.23979 1.18973,0.64153c0.26902,0.3997 0.31858,0.88726 0.13553,1.33792l-7.77118,19.1394c-0.24776,0.61026 -0.83458,1.00465 -1.49487,1.00465c0,0 0,0 0,0c-0.42784,0 -0.83099,-0.16757 -1.13518,-0.47192l-4.67593,-4.67578l-4.56229,4.56229l0.51382,0.51382c0.15272,0.15257 0.15272,0.40002 0,0.55258l-6.76731,6.76747c-0.35922,0.35922 -0.83693,0.55696 -1.34496,0.55696zm5.01796,-9.866l-6.4911,6.4911c-0.43675,0.43675 -0.43675,1.14753 0,1.58444l0.68092,0.68092c0.21165,0.21165 0.49287,0.32811 0.79222,0.32811c0.29919,0 0.58056,-0.11646 0.79222,-0.32811l6.49094,-6.4911l-2.2652,-2.26536zm7.69553,-3.6397l4.67578,4.67593c0.15663,0.15663 0.3636,0.24292 0.5826,0.24292c0.34062,0 0.64325,-0.2029 0.7708,-0.5171l7.77118,-19.1394c0.11427,-0.28153 0.01172,-0.50147 -0.05971,-0.60729c-0.17398,-0.25839 -0.49772,-0.36594 -0.79316,-0.24558l-19.13955,7.77087c-0.26183,0.1063 -0.44426,0.32608 -0.50037,0.60307s0.02626,0.5504 0.22619,0.75033l4.67593,4.67578l4.95387,-4.95387c0.21165,-0.21165 0.49287,-0.32811 0.79206,-0.32811c0.29935,0 0.58056,0.11646 0.79222,0.32811l0.20603,0.20603c0.21165,0.2115 0.32811,0.49287 0.32811,0.79206s-0.11661,0.58056 -0.32827,0.79222l-4.95371,4.95402zm-6.3526,3.87715l0.68498,0.68498l9.96729,-9.96745c0.18727,-0.18821 0.18696,-0.49506 -0.00141,-0.68342c-0.18289,-0.18274 -0.50194,-0.18274 -0.68498,0l-9.96589,9.96589z" id="svg_1"/>
 </g>
</svg>