<?xml version="1.0" encoding="utf-8"?>
<!-- Generator: Adobe Illustrator 19.1.1, SVG Export Plug-In . SVG Version: 6.00 Build 0)  -->
<svg version="1.1" id="Layer_1" xmlns="http://www.w3.org/2000/svg" xmlns:xlink="http://www.w3.org/1999/xlink" x="0px" y="0px"
	 viewBox="0 0 960 560" style="enable-background:new 0 0 960 560;" xml:space="preserve">
<path d="M527,447.7c-3.1,0-5.6-2.5-5.6-5.6c0-3,2.5-5.5,5.6-5.5h20.1V234.3H524v71.3c0,21.9-17.8,39.7-39.7,39.7H399
	c-21.9,0-39.7-17.8-39.7-39.7v-71.3h-23.2v202.3h20.1c3.1,0,5.6,2.5,5.6,5.5c0,3.1-2.5,5.6-5.6,5.6H305c-3,0-5.5-2.5-5.5-5.6
	c0-3,2.5-5.5,5.5-5.5H325V223.3h34.3v-31.6h-3c-3,0-5.5-2.5-5.5-5.5c0-3,2.5-5.5,5.5-5.5h5.1l28.3-56.6l-2.3-1.5
	c-1.6-1-2.6-2.8-2.6-4.7c0-3.1,2.5-5.5,5.5-5.5h102.4c3.1,0,5.6,2.5,5.6,5.5c0,1.9-1,3.6-2.6,4.7l-2.3,1.5l28.3,56.6h5.2
	c3,0,5.5,2.5,5.5,5.5c0,3.1-2.5,5.5-5.5,5.5h-3v31.6h57.2v-54.2c0-3.1,2.5-5.5,5.5-5.5H655c3,0,5.5,2.5,5.5,5.5
	c0,3.1-2.5,5.5-5.5,5.5h-62.8v54.2c0,3-2.5,5.5-5.5,5.5h-28.6v202.3h20.1c3,0,5.5,2.5,5.5,5.5c0,3.1-2.5,5.6-5.5,5.6H527z
	 M370.4,305.6c0,15.8,12.8,28.6,28.6,28.6h85.3c15.8,0,28.6-12.8,28.6-28.6V191.7H370.4V305.6z M373.9,180.6h135.6l-28.6-57.2h-78.5
	L373.9,180.6z"/>
</svg>
